<svg width="24" height="24" viewBox="0 0 24 24" fill="none" xmlns="http://www.w3.org/2000/svg">
<path d="M16.2501 2C16.111 2.00019 15.9746 2.03911 15.8562 2.1124C15.7379 2.18569 15.6423 2.29047 15.5801 2.415L14.5801 4.415C14.5249 4.52532 14.4978 4.64756 14.5011 4.77088C14.5044 4.8942 14.5381 5.01481 14.5991 5.122L15.5001 6.7V12H14.7501C14.5512 12 14.3605 12.079 14.2198 12.2197C14.0792 12.3603 14.0001 12.5511 14.0001 12.75V18.5C14.0001 19.4283 14.3689 20.3185 15.0253 20.9749C15.6817 21.6313 16.5719 22 17.5001 22C18.4284 22 19.3186 21.6313 19.975 20.9749C20.6314 20.3185 21.0001 19.4283 21.0001 18.5V12.75C21.0001 12.5511 20.9211 12.3603 20.7805 12.2197C20.6398 12.079 20.4491 12 20.2501 12H19.5001V6.7L20.4011 5.122C20.4624 5.01489 20.4962 4.89433 20.4997 4.77101C20.5032 4.64768 20.4762 4.5254 20.4211 4.415L19.4211 2.415C19.3589 2.29032 19.2631 2.18544 19.1446 2.11214C19.0261 2.03884 18.8895 2 18.7501 2H16.2501ZM18.0001 12H17.0001V6.5C17.0001 6.3695 16.9659 6.24127 16.9011 6.128L16.1011 4.726L16.7141 3.5H18.2871L18.9001 4.726L18.0991 6.128C18.0343 6.24127 18.0002 6.3695 18.0001 6.5V12ZM15.5001 18.5V16H19.5001V18.5C19.5001 19.0304 19.2894 19.5391 18.9144 19.9142C18.5393 20.2893 18.0306 20.5 17.5001 20.5C16.9697 20.5 16.461 20.2893 16.0859 19.9142C15.7109 19.5391 15.5001 19.0304 15.5001 18.5ZM19.5001 14.5H15.5001V13.5H19.5001V14.5ZM9.52615 2.136C9.41243 2.09099 9.28943 2.07448 9.16786 2.0879C9.0463 2.10131 8.92986 2.14426 8.82869 2.21298C8.72753 2.28171 8.6447 2.37413 8.58744 2.4822C8.53018 2.59027 8.50021 2.7107 8.50015 2.833V6.5C8.50015 6.76522 8.39479 7.01957 8.20725 7.20711C8.01972 7.39464 7.76536 7.5 7.50015 7.5C7.23493 7.5 6.98058 7.39464 6.79304 7.20711C6.6055 7.01957 6.50015 6.76522 6.50015 6.5V2.833C6.50015 2.71057 6.47019 2.59001 6.41287 2.48183C6.35555 2.37365 6.27262 2.28115 6.17132 2.2124C6.07002 2.14365 5.95343 2.10074 5.83173 2.08742C5.71003 2.07411 5.58692 2.09078 5.47315 2.136C4.49284 2.52489 3.64496 3.18733 3.03046 4.04444C2.41597 4.90155 2.06075 5.91721 2.00712 6.97047C1.95349 8.02373 2.2037 9.07022 2.72795 9.98531C3.2522 10.9004 4.02841 11.6455 4.96415 12.132V19.464C4.96415 20.1366 5.23133 20.7816 5.70692 21.2572C6.18252 21.7328 6.82756 22 7.50015 22C8.17274 22 8.81778 21.7328 9.29337 21.2572C9.76896 20.7816 10.0361 20.1366 10.0361 19.464V12.132C10.9718 11.6455 11.748 10.9002 12.2722 9.98508C12.7963 9.06993 13.0464 8.02341 12.9927 6.97014C12.939 5.91688 12.5837 4.90125 11.9691 4.0442C11.3545 3.18714 10.5065 2.52479 9.52615 2.136ZM10.0001 6.5V4.127C10.5447 4.56324 10.9657 5.13425 11.2214 5.7834C11.4771 6.43255 11.5587 7.13728 11.458 7.82768C11.3574 8.51809 11.078 9.17018 10.6475 9.71928C10.2171 10.2684 9.65055 10.6954 9.00415 10.958C8.86583 11.0141 8.74742 11.1102 8.66404 11.2341C8.58067 11.3579 8.53614 11.5037 8.53615 11.653V19.464C8.53615 19.7388 8.427 20.0023 8.23271 20.1966C8.03842 20.3909 7.77491 20.5 7.50015 20.5C7.22538 20.5 6.96187 20.3909 6.76758 20.1966C6.5733 20.0023 6.46415 19.7388 6.46415 19.464V11.653C6.46415 11.5037 6.41962 11.3579 6.33625 11.2341C6.25288 11.1102 6.13446 11.0141 5.99615 10.958C5.34996 10.6953 4.78364 10.2683 4.35336 9.7193C3.92307 9.17028 3.64375 8.51834 3.5431 7.8281C3.44244 7.13786 3.52394 6.4333 3.77952 5.78427C4.0351 5.13524 4.45588 4.56428 5.00015 4.128V6.5C5.00015 7.16304 5.26354 7.79893 5.73238 8.26777C6.20122 8.73661 6.83711 9 7.50015 9C8.16319 9 8.79907 8.73661 9.26791 8.26777C9.73675 7.79893 10.0001 7.16304 10.0001 6.5Z" fill="white"/>
</svg>
