<svg width="16" height="16" viewBox="0 0 16 16" fill="none" xmlns="http://www.w3.org/2000/svg">
<g clip-path="url(#clip0_2529_10)">
<path d="M7.768 0.117676V1.58618H6.456V1.97168H7.768V3.44018H8.2345V1.97168H9.5465V1.58618H8.2345V0.117676H7.768ZM11.7895 1.62568V3.78968H9.818V4.40618H11.7895V6.53168H12.485L12.4895 5.47718L12.5055 4.42768L13.482 4.41168L14.4535 4.40618V3.78968H12.485V1.62568H11.7895ZM3.518 1.66418V3.79218H1.526V4.40618H3.518V6.53418H4.1745V4.40618H6.182V3.78968H4.1745V1.66418H3.518ZM7.5755 5.17768V7.57318H5.373V8.36518H7.5755V10.7637H8.43V8.36518H10.6355V7.57318H8.43V5.17768H7.5755ZM14.0575 6.21068V7.69018H12.7135V8.23218H14.0575V9.73968H14.649V8.23218H16.0005V7.69018H14.649V6.21068H14.0575ZM1.3155 6.29668V7.74718H0V8.16118H1.3155V9.62518H1.761V8.16118H3.0945V7.74718H1.74V6.29668H1.3155ZM11.7895 9.31018V11.4797H9.776V12.0972H11.7895V14.2397H12.503V12.0972H14.4925V11.4797H12.503V9.31018H11.7895ZM3.4795 9.31568V11.4797H1.508V12.0972H3.4795V14.2247H4.2135V12.0972H6.182V11.4797H4.2135V9.31318H3.847L3.4795 9.31568ZM7.69 12.3677V13.8362H6.3775V14.3747H7.69V15.8827H8.31L8.318 15.1382L8.328 14.3747H9.6435V13.8362H8.31V12.3677H7.69Z" fill="black"/>
</g>
<defs>
<clipPath id="clip0_2529_10">
<rect width="16" height="16" fill="white"/>
</clipPath>
</defs>
</svg>
